HIERARCHY
ROOT hip
{
  OFFSET 9.47605 86.7218 255.333
  CHANNELS 6 Xposition Yposition Zposition Zrotation Xrotation Yrotation
  JOINT abdomen
  {
    OFFSET 0 20.6881 -0.73152
    CHANNELS 3 Zrotation Xrotation Yrotation
    JOINT chest
    {
      OFFSET 0 11.7043 -0.48768
      CHANNELS 3 Zrotation Xrotation Yrotation
      JOINT neck
      {
        OFFSET 0 22.1894 -2.19456
        CHANNELS 3 Zrotation Xrotation Yrotation
        JOINT head
        {
          OFFSET -0.24384 7.07133 1.2192
          CHANNELS 3 Zrotation Xrotation Yrotation
          JOINT leftEye
          {
            OFFSET 4.14528 8.04674 8.04672
            CHANNELS 3 Zrotation Xrotation Yrotation
            End Site
            {
              OFFSET 1 0 0
            }
          }
          JOINT rightEye
          {
            OFFSET -3.6576 8.04674 8.04672
            CHANNELS 3 Zrotation Xrotation Yrotation
            End Site
            {
              OFFSET 1 0 0
            }
          }
        }
      }
      JOINT rCollar
      {
        OFFSET -2.68224 19.2634 -4.8768
        CHANNELS 3 Zrotation Xrotation Yrotation
        JOINT rShldr
        {
          OFFSET -8.77824 -1.95073 1.46304
          CHANNELS 3 Zrotation Xrotation Yrotation
          JOINT rForeArm
          {
            OFFSET -28.1742 -1.7115 0.48768
            CHANNELS 3 Zrotation Xrotation Yrotation
            JOINT rHand
            {
              OFFSET -22.5879 0.773209 7.07136
              CHANNELS 3 Zrotation Xrotation Yrotation
              JOINT rThumb1
              {
                OFFSET -1.2192 -0.487915 3.41376
                CHANNELS 3 Zrotation Xrotation Yrotation
                JOINT rThumb2
                {
                  OFFSET -3.37035 -0.52449 3.41376
                  CHANNELS 3 Zrotation Xrotation Yrotation
                  End Site
                  {
                    OFFSET -1.78271 -1.18214 1.43049
                  }
                }
              }
              JOINT rIndex1
              {
                OFFSET -7.75947 0.938293 5.60832
                CHANNELS 3 Zrotation Xrotation Yrotation
                JOINT rIndex2
                {
                  OFFSET -2.54057 -0.884171 1.56538
                  CHANNELS 3 Zrotation Xrotation Yrotation
                  End Site
                  {
                    OFFSET -1.62519 -0.234802 1.16502
                  }
                }
              }
              JOINT rMid1
              {
                OFFSET -8.24714 1.18213 3.41376
                CHANNELS 3 Zrotation Xrotation Yrotation
                JOINT rMid2
                {
                  OFFSET -3.10165 -0.590103 1.0647
                  CHANNELS 3 Zrotation Xrotation Yrotation
                  End Site
                  {
                    OFFSET -2.48547 -0.328903 0.83742
                  }
                }
              }
              JOINT rRing1
              {
                OFFSET -8.82822 0.546677 1.51678
                CHANNELS 3 Zrotation Xrotation Yrotation
                JOINT rRing2
                {
                  OFFSET -2.60934 -0.819778 -0.0198488
                  CHANNELS 3 Zrotation Xrotation Yrotation
                  End Site
                  {
                    OFFSET -2.33842 -0.294052 0.168128
                  }
                }
              }
              JOINT rPinky1
              {
                OFFSET -8.27202 -0.0477905 -0.4584
                CHANNELS 3 Zrotation Xrotation Yrotation
                JOINT rPinky2
                {
                  OFFSET -1.82734 -0.647385 -0.700984
                  CHANNELS 3 Zrotation Xrotation Yrotation
                  End Site
                  {
                    OFFSET -1.69225 -0.51767 -0.607171
                  }
                }
              }
            }
          }
        }
      }
      JOINT lCollar
      {
        OFFSET 2.68224 19.2634 -4.8768
        CHANNELS 3 Zrotation Xrotation Yrotation
        JOINT lShldr
        {
          OFFSET 8.77824 -1.95073 1.46304
          CHANNELS 3 Zrotation Xrotation Yrotation
          JOINT lForeArm
          {
            OFFSET 28.1742 -1.7115 0.48768
            CHANNELS 3 Zrotation Xrotation Yrotation
            JOINT lHand
            {
              OFFSET 22.5879 0.773209 7.07136
              CHANNELS 3 Zrotation Xrotation Yrotation
              JOINT lThumb1
              {
                OFFSET 1.2192 -0.487915 3.41376
                CHANNELS 3 Zrotation Xrotation Yrotation
                JOINT lThumb2
                {
                  OFFSET 3.37035 -0.52449 3.41376
                  CHANNELS 3 Zrotation Xrotation Yrotation
                  End Site
                  {
                    OFFSET 1.78271 -1.18214 1.43049
                  }
                }
              }
              JOINT lIndex1
              {
                OFFSET 7.75947 0.938293 5.60832
                CHANNELS 3 Zrotation Xrotation Yrotation
                JOINT lIndex2
                {
                  OFFSET 2.54057 -0.884171 1.56538
                  CHANNELS 3 Zrotation Xrotation Yrotation
                  End Site
                  {
                    OFFSET 1.62519 -0.234802 1.16502
                  }
                }
              }
              JOINT lMid1
              {
                OFFSET 8.24714 1.18213 3.41376
                CHANNELS 3 Zrotation Xrotation Yrotation
                JOINT lMid2
                {
                  OFFSET 3.10165 -0.590103 1.0647
                  CHANNELS 3 Zrotation Xrotation Yrotation
                  End Site
                  {
                    OFFSET 2.48547 -0.328903 0.83742
                  }
                }
              }
              JOINT lRing1
              {
                OFFSET 8.82822 0.546677 1.51678
                CHANNELS 3 Zrotation Xrotation Yrotation
                JOINT lRing2
                {
                  OFFSET 2.60934 -0.819778 -0.0198488
                  CHANNELS 3 Zrotation Xrotation Yrotation
                  End Site
                  {
                    OFFSET 2.33842 -0.294052 0.168128
                  }
                }
              }
              JOINT lPinky1
              {
                OFFSET 8.27202 -0.0477905 -0.4584
                CHANNELS 3 Zrotation Xrotation Yrotation
                JOINT lPinky2
                {
                  OFFSET 1.82734 -0.647385 -0.700984
                  CHANNELS 3 Zrotation Xrotation Yrotation
                  End Site
                  {
                    OFFSET 1.69225 -0.51767 -0.607171
                  }
                }
              }
            }
          }
        }
      }
    }
  }
  JOINT rButtock
  {
    OFFSET -8.77824 4.35084 1.2192
    CHANNELS 3 Zrotation Xrotation Yrotation
    JOINT rThigh
    {
      OFFSET 0 -1.70687 -2.19456
      CHANNELS 3 Zrotation Xrotation Yrotation
      JOINT rShin
      {
        OFFSET 0 -36.8199 0.73152
        CHANNELS 3 Zrotation Xrotation Yrotation
        JOINT rFoot
        {
          OFFSET 0.73152 -45.1104 -5.12064
          CHANNELS 3 Zrotation Xrotation Yrotation
          End Site
          {
            OFFSET -1.1221 -3.69964 12.103
          }
        }
      }
    }
  }
  JOINT lButtock
  {
    OFFSET 8.77824 4.35084 1.2192
    CHANNELS 3 Zrotation Xrotation Yrotation
    JOINT lThigh
    {
      OFFSET 0 -1.70687 -2.19456
      CHANNELS 3 Zrotation Xrotation Yrotation
      JOINT lShin
      {
        OFFSET 0 -36.8199 0.73152
        CHANNELS 3 Zrotation Xrotation Yrotation
        JOINT lFoot
        {
          OFFSET -0.73152 -45.1104 -5.12064
          CHANNELS 3 Zrotation Xrotation Yrotation
          End Site
          {
            OFFSET 1.1221 -3.69964 12.103
          }
        }
      }
    }
  }
}
MOTION
Frames:	4
Frame Time:	0.00833333
4.73601 84.3737 -202.214 0.788408 0.000540269 -0.0144451 -1.03704 -0.00414434 -0.0285998 -0.285912 -0.00382788 -0.0495312 8.9083e-015 0 -1.3383e-023 2.67987e-014 3.18055e-015 -3.10601e-018 -0 0 0 -0 0 0 4.62066e-015 1.55301e-017 1.98785e-016 9.42228e-014 1.86361e-017 9.93923e-016 1.59878e-012 -4.68535e-013 0 1.82997e-011 5.31674e-013 9.54166e-015 4.31665e-011 1.39377e-013 4.13472e-014 7.45427e-011 2.41722e-013 6.99722e-014 4.31713e-011 1.41535e-013 2.8625e-014 7.73091 5.47488 0.417314 4.3166e-011 1.3895e-013 4.45278e-014 2.90554 0.965183 0.102902 4.31733e-011 1.39646e-013 4.13472e-014 10.2786 0.731801 0.0259123 4.31633e-011 1.39149e-013 4.45278e-014 2.22167 -0.733487 -0.20892 4.42434e-015 1.65007e-017 -1.98785e-016 9.1895e-014 1.86361e-017 -1.98785e-016 1.59878e-012 4.87818e-013 -1.90833e-014 1.8314e-011 -4.29723e-013 5.08889e-014 4.32002e-011 1.29428e-013 4.45278e-014 7.46095e-011 2.25819e-013 8.34896e-014 4.31959e-011 1.308e-013 4.77083e-014 -7.73091 5.47488 -0.417314 4.32018e-011 1.29111e-013 4.13472e-014 -2.90554 0.965183 -0.102902 4.31962e-011 1.29508e-013 4.37326e-014 -10.2786 0.731801 -0.0259123 4.32041e-011 1.30403e-013 3.49861e-014 -2.22167 -0.733487 0.20892 -2.03217e-016 0 -3.88251e-019 -0.272819 -1.9197 -0.0125408 -0.0093852 -2.07854 -0.0775821 -0.513285 3.99654 0.140463 2.03217e-016 0 3.88251e-019 -1.30492 -5.55695 0.114025 -0.000204633 4.50985 -0.0271209 0.527349 1.04554 -0.0815501 
8.06658 82.6463 -207.701 1.18977 2.99939 20.2609 -1.76112 2.71267 -1.73648 0.182474 -1.66166 -0.537111 -0.0394807 -0.66385 -1.64472 1.39959 7.42791 -3.00826 -0 0 0 -0 0 0 2.55802e-014 3.79783e-014 -1.98331e-013 18.0023 9.37588 3.7669 -6.5772 -3.67795 9.41409 0.0211373 -3.22673 -0.450895 4.98744e-010 -1.18051e-010 -9.90295e-011 8.60792e-010 -2.08143e-010 -1.67344e-010 4.98748e-010 -1.18048e-010 -9.90378e-011 7.73091 5.47488 0.417314 4.98743e-010 -1.18051e-010 -9.90271e-011 2.90554 0.965183 0.102902 4.9875e-010 -1.1805e-010 -9.90294e-011 10.2786 0.731801 0.0259123 4.98742e-010 -1.1805e-010 -9.90282e-011 2.22167 -0.733487 -0.20892 2.54594e-014 3.79771e-014 -1.98686e-013 -18.7156 14.6652 -4.43422 11.4919 -8.40306 -13.1808 -0.167162 -9.09211 1.22051 1.66808e-010 1.40014e-010 -2.43804e-011 2.89242e-010 2.3702e-010 -3.66659e-011 1.66801e-010 1.40013e-010 -2.43746e-011 -7.73091 5.47488 -0.417314 1.66808e-010 1.40012e-010 -2.438e-011 -2.90554 0.965183 -0.102902 1.66802e-010 1.40012e-010 -2.43795e-011 -10.2786 0.731801 -0.0259123 1.66812e-010 1.40014e-010 -2.43882e-011 -2.22167 -0.733487 0.20892 -2.03217e-016 0 -3.88251e-019 0.2859 -9.92606 -3.43267 0.0914954 11.3739 0.183766 -0.834485 -8.21732 -1.95456 2.03217e-016 0 3.88251e-019 0.659924 -9.27487 -2.05633 0.0155507 13.2163 -0.12946 -0.386387 -6.28657 -5.17416 
8.17398 82.7946 -205.722 -0.481202 4.92712 41.8206 -2.34638 5.60303 -3.55748 0.644796 -3.41391 -1.05476 -0.115943 -1.38604 -3.385 3.75514 15.2184 -6.36559 -0 0 0 -0 0 0 4.80399e-014 8.26818e-014 -4.17339e-013 35.5934 19.1349 8.11373 -12.2333 -7.2356 19.4887 -0.0121157 -6.64572 -0.933534 1.00943e-009 -2.40856e-010 -2.07084e-010 1.74218e-009 -4.24974e-010 -3.49829e-010 1.00943e-009 -2.40852e-010 -2.07087e-010 7.73091 5.47488 0.417314 1.00943e-009 -2.40854e-010 -2.07082e-010 2.90554 0.965183 0.102902 1.00944e-009 -2.40854e-010 -2.07083e-010 10.2786 0.731801 0.0259123 1.00943e-009 -2.40854e-010 -2.07084e-010 2.22167 -0.733487 -0.20892 4.80011e-014 8.26782e-014 -4.1765e-013 -35.6648 29.8891 -10.2605 19.4774 -15.8143 -27.9817 0.0983705 -18.6715 2.61479 3.15484e-010 3.00185e-010 -5.06744e-011 5.47216e-010 5.08035e-010 -7.57583e-011 3.15476e-010 3.00181e-010 -5.06656e-011 -7.73091 5.47488 -0.417314 3.15484e-010 3.00181e-010 -5.067e-011 -2.90554 0.965183 -0.102902 3.15478e-010 3.00181e-010 -5.06716e-011 -10.2786 0.731801 -0.0259123 3.1549e-010 3.00183e-010 -5.06803e-011 -2.22167 -0.733487 0.20892 -2.03217e-016 0 -3.88251e-019 -0.207892 -18.3042 -7.31498 0.0532081 25.6184 0.502477 -2.21084 -21.09 -4.43942 2.03217e-016 0 3.88251e-019 2.43083 -13.196 -4.39114 0.0691764 22.4421 -0.24951 -2.80358 -13.8185 -10.8434 
8.27283 82.9561 -203.744 -3.07116 4.67258 61.0673 -2.71992 8.11696 -5.19863 1.03433 -4.9758 -1.51731 -0.232681 -1.98499 -4.9368 6.68394 22.0282 -9.6602 -0 0 0 -0 0 0 6.74994e-014 1.13904e-013 -5.9539e-013 49.9341 27.6095 12.6045 -16.2248 -9.84394 28.6433 -0.0908036 -9.67777 -1.37004 1.4099e-009 -3.54432e-010 -2.97171e-010 2.43329e-009 -6.24912e-010 -5.02173e-010 1.4099e-009 -3.54427e-010 -2.97171e-010 7.73091 5.47488 0.417314 1.4099e-009 -3.5443e-010 -2.9717e-010 2.90554 0.965183 0.102902 1.4099e-009 -3.5443e-010 -2.97171e-010 10.2786 0.731801 0.0259123 1.4099e-009 -3.5443e-010 -2.97174e-010 2.22167 -0.733487 -0.20892 6.75296e-014 1.13898e-013 -5.95662e-013 -47.3329 42.7424 -17.6532 23.3392 -19.7976 -42.1014 0.782628 -27.2236 4.06661 4.14022e-010 4.19783e-010 -7.32303e-011 7.18507e-010 7.1061e-010 -1.10165e-010 4.14012e-010 4.19777e-010 -7.32191e-011 -7.73091 5.47488 -0.417314 4.14022e-010 4.19778e-010 -7.32226e-011 -2.90554 0.965183 -0.102902 4.14015e-010 4.19778e-010 -7.32259e-011 -10.2786 0.731801 -0.0259123 4.14029e-010 4.19781e-010 -7.32346e-011 -2.22167 -0.733487 0.20892 -2.03217e-016 0 -3.88251e-019 -1.716 -25.5576 -11.2296 -0.152502 38.2755 0.885999 -4.54431 -32.4526 -7.21508 2.03217e-016 0 3.88251e-019 3.71283 -16.6238 -6.59196 0.154378 30.6286 -0.376554 -6.28606 -20.2522 -16.2989 
